<svg version="1.1" xmlns="http://www.w3.org/2000/svg" xmlns:xlink="http://www.w3.org/1999/xlink" width="173" height="337" style="enable-background:new 0 0 398.138 398.138;" xml:space="preserve"><rect id="backgroundrect" width="100%" height="100%" x="0" y="0" fill="none" stroke="none" style="" class=""/>
















<g class="currentLayer" style=""><title>Layer 1</title><g id="svg_1" class="selected">
	<g id="svg_2">
		<path d="M13.814682006835938,337.48236656188965 h150.83567810058594 c4.830864906311035,0 8.77612018585205,-4.473287582397461 8.77612018585205,-9.973176002502441 V12.42348313331604 C173.42572402954102,6.926119089126587 169.48120498657227,2.4587221145629883 164.64961624145508,2.4587221145629883 H13.814682006835938 c-4.8434529304504395,0 -8.774640083312988,4.474128723144531 -8.774640083312988,9.964760780334473 v315.094970703125 C5.040035247802734,333.009069442749 8.97122573852539,337.48236656188965 13.814682006835938,337.48236656188965 zM12.832805633544922,12.42348313331604 c0,-0.6109117269515991 0.4442855417728424,-1.1090656518936157 0.9818710088729858,-1.1090656518936157 h150.83567810058594 c0.541287899017334,0 0.9737258553504944,0.4981539249420166 0.9737258553504944,1.1090656518936157 v315.094970703125 c0,0.6117532253265381 -0.432437926530838,1.1065412759780884 -0.9737258553504944,1.1065412759780884 H13.814682006835938 c-0.5375854969024658,0 -0.9818710088729858,-0.4956294596195221 -0.9818710088729858,-1.1065412759780884 V12.42348313331604 L12.832805633544922,12.42348313331604 z" id="svg_3"/>
		<path d="M23.069889068603516,302.4407711029053 h132.3260040283203 c1.2106781005859375,0 2.196251630783081,-1.1157974004745483 2.196251630783081,-2.4916110038757324 V41.06312561035156 c0,-1.3783379793167114 -0.985573410987854,-2.4932940006256104 -2.196251630783081,-2.4932940006256104 H23.069889068603516 c-1.2106781005859375,0 -2.1940300464630127,1.114956021308899 -2.1940300464630127,2.4932940006256104 v258.88604736328125 C20.875858306884766,301.3241329193115 21.859210968017578,302.4407711029053 23.069889068603516,302.4407711029053 zM31.112934112548828,43.55389595031738 h116.23990631103516 c3.2299559116363525,0 5.850500106811523,2.9779841899871826 5.850500106811523,6.648503303527832 v240.6066436767578 c0,3.669677734375 -2.620544195175171,6.648503303527832 -5.850500106811523,6.648503303527832 h-116.23990631103516 c-3.2277345657348633,0 -5.848278522491455,-2.978825807571411 -5.848278522491455,-6.648503303527832 V50.203237533569336 C25.263912200927734,46.53188133239746 27.884456634521484,43.55389595031738 31.112934112548828,43.55389595031738 z" id="svg_4"/>
		<path d="M106.04465103149414,309.6236324310303 h-33.61538314819336 c-1.2106781005859375,0 -2.1918087005615234,1.114956021308899 -2.1918087005615234,2.490769624710083 v10.182703018188477 c0,1.376655101776123 0.9811305999755859,2.4958183765411377 2.1918087005615234,2.4958183765411377 h33.61538314819336 c1.2106781005859375,0 2.1918087005615234,-1.1191633939743042 2.1918087005615234,-2.4958183765411377 v-10.182703018188477 C108.23646926879883,310.738561630249 107.25534439086914,309.6236324310303 106.04465103149414,309.6236324310303 zM97.9979133605957,319.80548667907715 H80.47380447387695 c-3.2299559116363525,0 -5.850500106811523,-1.1629201173782349 -5.850500106811523,-2.5984785556793213 s2.620544195175171,-2.5976369380950928 5.850500106811523,-2.5976369380950928 h17.52410316467285 c3.2299559116363525,0 5.850500106811523,1.162078619003296 5.850500106811523,2.5976369380950928 S101.22786331176758,319.80548667907715 97.9979133605957,319.80548667907715 z" id="svg_5"/>
		<path d="M72.42853164672852,31.668886184692383 h33.61538314819336 c1.2106781005859375,0 2.1918087005615234,-1.1174803972244263 2.1918087005615234,-2.4932940006256104 V18.991204261779785 c0,-1.376655101776123 -0.9811305999755859,-2.4916110038757324 -2.1918087005615234,-2.4916110038757324 h-33.61538314819336 c-1.2106781005859375,0 -2.1918087005615234,1.114956021308899 -2.1918087005615234,2.4916110038757324 V29.17559242248535 C70.23746109008789,30.551403045654297 71.21859359741211,31.668886184692383 72.42853164672852,31.668886184692383 zM80.47380447387695,21.48449993133545 h17.52410316467285 c3.2299559116363525,0 5.850500106811523,1.1646029949188232 5.850500106811523,2.60016131401062 s-2.620544195175171,2.5976369380950928 -5.850500106811523,2.5976369380950928 H80.47380447387695 c-3.2299559116363525,0 -5.850500106811523,-1.162078619003296 -5.850500106811523,-2.5976369380950928 S77.23866653442383,21.48449993133545 80.47380447387695,21.48449993133545 z" id="svg_6"/>
		<circle cx="146.83822101558962" cy="24.082977331389543" r="4.481361389160156" id="svg_7"/>
		<circle cx="137.74960706925685" cy="24.08381834535487" r="2.047415256500244" id="svg_8"/>
		<circle cx="132.331555264499" cy="24.08381834535487" r="2.047415256500244" id="svg_9"/>
		<path d="M94.23776626586914,102.48752403259277 c-1.2632519006729126,-0.41232335567474365 -2.5205800533294678,-0.6260582804679871 -3.7371816635131836,-0.6260582804679871 c-6.214073657989502,0 -10.558445930480957,5.264275074005127 -10.558445930480957,12.810633659362793 v57.24898910522461 c0,3.6705191135406494 -1.6971707344055176,6.123422145843506 -3.8312220573425293,5.824698448181152 c-1.2817636728286743,-0.18007591366767883 -2.5872228145599365,-0.27347975969314575 -3.897865056991577,-0.27347975969314575 c-14.688819885253906,0 -26.6326961517334,11.54168701171875 -26.6326961517334,25.727293014526367 c0,14.178032875061035 11.943875312805176,25.7188777923584 26.6326961517334,25.7188777923584 c14.688819885253906,0 26.634918212890625,-11.54168701171875 26.634918212890625,-25.7188777923584 v-66.86370086669922 c0,-3.667994976043701 1.1692113876342773,-5.504095554351807 2.6131393909454346,-4.10219669342041 l2.6168417930603027,2.54630708694458 c1.8541516065597534,1.8159056901931763 3.9600651264190674,2.773505449295044 6.0844902992248535,2.773505449295044 c4.011898517608643,0 7.538784980773926,-3.431540012359619 9.201152801513672,-8.947416305541992 l0.22954753041267395,-0.764901876449585 c1.237335205078125,-4.114818572998047 0.9700233936309814,-8.455994606018066 -0.763430655002594,-12.237588882446289 c-1.729751706123352,-3.7832767963409424 -4.7042436599731445,-6.535745620727539 -8.374041557312012,-7.750837802886963 L94.23776626586914,102.48752403259277 zM116.06921768188477,126.4780101776123 l-0.2221427708864212,0.764901876449585 c-1.1469972133636475,3.808521270751953 -3.2751247882843018,6.082190036773682 -5.685373783111572,6.082190036773682 c-1.2217851877212524,0 -2.485037088394165,-0.6041799187660217 -3.662393808364868,-1.7561607360839844 l-8.302215576171875,-8.082378387451172 c-0.5486926436424255,-0.5318129658699036 -1.349887490272522,-0.6513025760650635 -1.9896587133407593,-0.3138706088066101 c-0.6545807123184204,0.3391149044036865 -1.0751709938049316,1.0981264114379883 -1.0751709938049316,1.9160412549972534 v78.10161590576172 c0,11.853034019470215 -10.28372859954834,21.492984771728516 -22.914026260375977,21.492984771728516 c-12.628076553344727,0 -22.91180419921875,-9.639951705932617 -22.91180419921875,-21.492984771728516 c0,-11.853875160217285 10.28372859954834,-21.488779067993164 22.91180419921875,-21.488779067993164 c3.100372314453125,0 6.125216960906982,0.5679964423179626 8.973827362060547,1.7132455110549927 c0.5790521502494812,0.23056447505950928 1.2106781005859375,0.1194896250963211 1.6919875144958496,-0.27347975969314575 c0.4909355044364929,-0.39296939969062805 0.7893472909927368,-1.038381576538086 0.7893472909927368,-1.7225017547607422 V114.6779842376709 c0,-5.1380534172058105 2.7486464977264404,-8.582216262817383 6.832371234893799,-8.582216262817383 c0.8700591325759888,0 1.7726993560791016,0.15399014949798584 2.6975536346435547,0.4594460129737854 l16.21346092224121,5.364410877227783 c2.6923701763153076,0.8911232948303223 4.861964702606201,2.89131236076355 6.114109516143799,5.636207580566406 C116.78747940063477,120.28895378112793 116.97555923461914,123.45879173278809 116.06921768188477,126.4780101776123 z" id="svg_10"/>
	</g>
</g><g id="svg_11" class="">
</g><g id="svg_12" class="">
</g><g id="svg_13" class="">
</g><g id="svg_14" class="">
</g><g id="svg_15" class="">
</g><g id="svg_16" class="">
</g><g id="svg_17" class="">
</g><g id="svg_18" class="">
</g><g id="svg_19" class="">
</g><g id="svg_20" class="">
</g><g id="svg_21" class="">
</g><g id="svg_22" class="">
</g><g id="svg_23" class="">
</g><g id="svg_24" class="">
</g><g id="svg_25" class="">
</g></g></svg>